:FULLY-SPECIFIED
:FORCE-ALL-JOINTS-BE-3DOF
:DEGREES
1121
root 0.913765 14.4975 -28.1191 2.94375 1.42873 3.42114
lfemur -30.7624 12.2086 -22.6254
ltibia 70.0486 -0 0
lfoot -24.9234 28.5825 -0.124955
ltoes -14.2033 0 0
rfemur -44.9455 -12.1059 12.921
rtibia 88.4325 -0 0
rfoot -5.60645 -2.73081 0.355448
rtoes -11.5489 0 0
lowerback 14.1305 1.32007 -9.58344
upperback -0.767959 0.245369 1.16514
thorax -8.85826 0.602565 6.70409
lowerneck -5.09439 -2.11414 -4.34568
upperneck 4.45669 -2.75374 4.69012
head 2.78894 -1.37401 1.92576
lclavicle 5.71257e-14 1.35174e-14 0
lhumerus 36.3212 -29.0207 57.5949
lradius 89.5792 -0 0
lwrist 37.7098 0 0
lhand -27.4135 28.8703 -1.38312
lfingers 7.12502 -0 0
lthumb -0.823884 58.5358 -1.35533
rclavicle 5.71257e-14 1.35174e-14 0
rhumerus -8.88425 28.4753 -70.6488
rradius 87.9781 -0 0
rwrist -28.2181 0 0
rhand -25.7683 -47.2584 -0.321403
rfingers 7.12502 -0 0
rthumb 0.771392 -77.0251 -0.321249
1122
root 0.881864 14.4935 -27.9232 2.66812 2.39077 3.54687
lfemur -29.477 12.0413 -22.2601
ltibia 69.5452 -0 0
lfoot -25.1055 28.7986 -0.129764
ltoes -14.2255 0 0
rfemur -45.0398 -12.1309 12.5644
rtibia 87.2819 -0 0
rfoot -5.26948 -2.39837 0.369148
rtoes -11.2399 0 0
lowerback 14.0874 1.40528 -9.64353
upperback -0.73883 0.346947 1.07117
thorax -8.82008 0.648652 6.61339
lowerneck -4.96741 -2.48469 -4.66304
upperneck 4.60535 -3.25303 4.96386
head 2.86106 -1.6231 2.03362
lclavicle 5.71257e-14 1.35174e-14 0
lhumerus 32.5499 -30.012 59.3982
lradius 90.2084 -0 0
lwrist 38.2647 0 0
lhand -26.7914 28.1673 -1.43677
lfingers 7.12502 -0 0
lthumb -0.223345 57.8223 -1.4079
rclavicle 5.71257e-14 1.35174e-14 0
rhumerus -5.63146 28.1664 -68.4017
rradius 88.0698 -0 0
rwrist -26.6233 0 0
rhand -26.2804 -47.0606 -0.333801
rfingers 7.12502 -0 0
rthumb 0.277069 -76.8202 -0.333639
1123
root 0.849964 14.4894 -27.7272 2.39439 3.35339 3.66807
lfemur -28.1936 11.8661 -21.899
ltibia 69.0417 -0 0
lfoot -25.2876 29.0148 -0.133887
ltoes -14.2476 0 0
rfemur -45.1339 -12.1565 12.2078
rtibia 86.1314 -0 0
rfoot -4.93244 -2.06587 0.380893
rtoes -10.9308 0 0
lowerback 14.0443 1.49044 -9.70369
upperback -0.709867 0.448572 0.977247
thorax -8.78198 0.694799 6.52272
lowerneck -4.83834 -2.85454 -4.98131
upperneck 4.7517 -3.75302 5.23645
head 2.93271 -1.87232 2.14118
lclavicle 5.71257e-14 1.35174e-14 0
lhumerus 28.7078 -30.8968 61.2911
lradius 90.8377 -0 0
lwrist 38.8195 0 0
lhand -26.1687 27.4638 -1.48278
lfingers 7.12502 -0 0
lthumb 0.377816 57.1083 -1.45298
rclavicle 5.71257e-14 1.35174e-14 0
rhumerus -2.4058 27.7461 -66.1855
rradius 88.1614 -0 0
rwrist -25.0285 0 0
rhand -26.7924 -46.8626 -0.344429
rfingers 7.12502 -0 0
rthumb -0.217298 -76.6152 -0.344261
1124
root 0.818064 14.4854 -27.5313 2.12238 4.31659 3.7848
lfemur -26.9121 11.6829 -21.5422
ltibia 68.5383 -0 0
lfoot -25.4697 29.2309 -0.137323
ltoes -14.2698 0 0
rfemur -45.2278 -12.1827 11.8512
rtibia 84.9808 -0 0
rfoot -4.59534 -1.7333 0.390682
rtoes -10.6218 0 0
lowerback 14.0011 1.57556 -9.76391
upperback -0.68107 0.550245 0.883376
thorax -8.74395 0.741006 6.43208
lowerneck -4.70717 -3.22366 -5.30052
upperneck 4.89575 -4.2537 5.50792
head 3.00391 -2.12167 2.24845
lclavicle 5.71257e-14 1.35174e-14 0
lhumerus 24.7995 -31.6694 63.2659
lradius 91.4669 -0 0
lwrist 39.3744 0 0
lhand -25.5454 26.7598 -1.52114
lfingers 7.12502 -0 0
lthumb 0.979503 56.3938 -1.49057
rclavicle 5.71257e-14 1.35174e-14 0
rhumerus 0.785338 27.217 -64.0089
rradius 88.2531 -0 0
rwrist -23.4337 0 0
rhand -27.3046 -46.6645 -0.353288
rfingers 7.12502 -0 0
rthumb -0.711699 -76.4102 -0.353114
1125
root 0.786163 14.4814 -27.3354 1.85196 5.28032 3.8971
lfemur -25.6327 11.4921 -21.19
ltibia 68.0349 -0 0
lfoot -25.6519 29.447 -0.140071
ltoes -14.2919 0 0
rfemur -45.3216 -12.2094 11.4945
rtibia 83.8302 -0 0
rfoot -4.25819 -1.40068 0.398514
rtoes -10.3127 0 0
lowerback 13.9578 1.66063 -9.8242
upperback -0.65244 0.651964 0.789554
thorax -8.70599 0.787273 6.34148
lowerneck -4.5739 -3.59204 -5.6207
upperneck 5.03753 -4.75506 5.77831
head 3.07465 -2.37116 2.35542
lclavicle 5.71257e-14 1.35174e-14 0
lhumerus 20.8316 -32.3242 65.3139
lradius 92.0961 -0 0
lwrist 39.9292 0 0
lhand -24.9217 26.0554 -1.55185
lfingers 7.12502 -0 0
lthumb 1.58162 55.6789 -1.52065
rclavicle 5.71257e-14 1.35174e-14 0
rhumerus 3.93532 26.5819 -61.8798
rradius 88.3447 -0 0
rwrist -21.8389 0 0
rhand -27.8167 -46.4663 -0.360376
rfingers 7.12502 -0 0
rthumb -1.20613 -76.2051 -0.360197
1126
root 0.754263 14.4773 -27.1395 1.58299 6.24456 4.00501
lfemur -24.3554 11.2935 -20.8424
ltibia 67.5314 -0 0
lfoot -25.834 29.6632 -0.142133
ltoes -14.3141 0 0
rfemur -45.4152 -12.2367 11.1379
rtibia 82.6796 -0 0
rfoot -3.921 -1.06801 0.404388
rtoes -10.0037 0 0
lowerback 13.9144 1.74565 -9.88456
upperback -0.623975 0.753731 0.695781
thorax -8.6681 0.8336 6.2509
lowerneck -4.4385 -3.95968 -5.94187
upperneck 5.17703 -5.25707 6.04767
head 3.14494 -2.62078 2.46211
lclavicle 5.71257e-14 1.35174e-14 0
lhumerus 16.812 -32.8564 67.4244
lradius 92.7254 -0 0
lwrist 40.4841 0 0
lhand -24.2977 25.3508 -1.57488
lfingers 7.12502 -0 0
lthumb 2.18408 54.9637 -1.54322
rclavicle 5.71257e-14 1.35174e-14 0
rhumerus 7.03843 25.8441 -59.8052
rradius 88.4364 -0 0
rwrist -20.2441 0 0
rhand -28.3288 -46.2681 -0.365692
rfingers 7.12502 -0 0
rthumb -1.70058 -75.9999 -0.36551
1127
root 0.722362 14.4733 -26.9436 1.31531 7.2093 4.10857
lfemur -23.0803 11.0875 -20.4997
ltibia 67.028 -0 0
lfoot -26.0162 29.8793 -0.143508
ltoes -14.3362 0 0
rfemur -45.5086 -12.2645 10.7814
rtibia 81.5291 -0 0
rfoot -3.58378 -0.735322 0.408305
rtoes -9.69463 0 0
lowerback 13.8709 1.83063 -9.94498
upperback -0.595676 0.855543 0.602057
thorax -8.63029 0.879987 6.16035
lowerneck -4.30098 -4.32655 -6.26407
upperneck 5.31428 -5.75973 6.31603
head 3.21478 -2.87053 2.56851
lclavicle 5.71257e-14 1.35174e-14 0
lhumerus 12.7503 -33.262 69.5856
lradius 93.3546 -0 0
lwrist 41.039 0 0
lhand -23.6734 24.6459 -1.59024
lfingers 7.12502 -0 0
lthumb 2.78677 54.2484 -1.55827
rclavicle 5.71257e-14 1.35174e-14 0
rhumerus 10.0899 25.0075 -57.7911
rradius 88.5281 -0 0
rwrist -18.6493 0 0
rhand -28.841 -46.0699 -0.369237
rfingers 7.12502 -0 0
rthumb -2.19505 -75.7947 -0.369052
1128
root 0.690462 14.4693 -26.7477 1.04878 8.17451 4.20781
lfemur -21.8073 10.874 -20.1619
ltibia 66.5245 -0 0
lfoot -26.1983 30.0955 -0.144195
ltoes -14.3584 0 0
rfemur -45.6019 -12.293 10.4248
rtibia 80.3785 -0 0
rfoot -3.24654 -0.402613 0.410263
rtoes -9.38558 0 0
lowerback 13.8273 1.91557 -10.0055
upperback -0.567543 0.957402 0.50838
thorax -8.59255 0.926433 6.06983
lowerneck -4.16132 -4.69264 -6.58731
upperneck 5.44928 -6.26303 6.58342
head 3.28417 -3.12041 2.67463
lclavicle 5.71257e-14 1.35174e-14 0
lhumerus 8.65718 -33.5378 71.7842
lradius 93.9839 -0 0
lwrist 41.5938 0 0
lhand -23.049 23.9408 -1.59792
lfingers 7.12502 -0 0
lthumb 3.38961 53.5329 -1.56579
rclavicle 5.71257e-14 1.35174e-14 0
rhumerus 13.0858 24.0761 -55.8428
rradius 88.6197 -0 0
rwrist -17.0545 0 0
rhand -29.3532 -45.8716 -0.371009
rfingers 7.12502 -0 0
rthumb -2.68953 -75.5895 -0.370823
1129
root 0.658561 14.4652 -26.5517 0.78326 9.14017 4.30277
lfemur -20.5365 10.6532 -19.8293
ltibia 66.0211 -0 0
lfoot -26.3805 30.3116 -0.144195
ltoes -14.3805 0 0
rfemur -45.695 -12.322 10.0682
rtibia 79.2279 -0 0
rfoot -2.9093 -0.0698974 0.410263
rtoes -9.07653 0 0
lowerback 13.7836 2.00045 -10.066
upperback -0.539576 1.05931 0.41475
thorax -8.55488 0.97294 5.97934
lowerneck -4.01951 -5.05794 -6.91162
upperneck 5.58205 -6.76694 6.84988
head 3.35312 -3.37041 2.78048
lclavicle 5.71257e-14 1.35174e-14 0
lhumerus 4.54442 -33.6815 74.0063
lradius 94.6131 -0 0
lwrist 42.1487 0 0
lhand -22.4245 23.2358 -1.59792
lfingers 7.12502 -0 0
lthumb 3.9925 52.8174 -1.56579
rclavicle 5.71257e-14 1.35174e-14 0
rhumerus 16.0235 23.0542 -53.9644
rradius 88.7114 -0 0
rwrist -15.4598 0 0
rhand -29.8654 -45.6734 -0.371009
rfingers 7.12502 -0 0
rthumb -3.18401 -75.3842 -0.370823
1130
root 0.626661 14.4612 -26.3558 0.518606 10.1062 4.39344
lfemur -19.268 10.4252 -19.502
ltibia 65.5176 -0 0
lfoot -26.5626 30.5278 -0.143508
ltoes -14.4027 0 0
rfemur -45.7879 -12.3516 9.71164
rtibia 78.0773 -0 0
rfoot -2.57206 0.262812 0.408305
rtoes -8.76748 0 0
lowerback 13.7398 2.08529 -10.1267
upperback -0.511774 1.16126 0.321167
thorax -8.51729 1.01951 5.88888
lowerneck -3.87554 -5.42243 -7.23702
upperneck 5.71261 -7.27146 7.11546
head 3.42162 -3.62054 2.88605
lclavicle 5.71257e-14 1.35174e-14 0
lhumerus 0.424375 -33.692 76.237
lradius 95.2424 -0 0
lwrist 42.7035 0 0
lhand -21.8001 22.5307 -1.59024
lfingers 7.12502 -0 0
lthumb 4.59534 52.1019 -1.55827
rclavicle 5.71257e-14 1.35174e-14 0
rhumerus 18.901 21.9463 -52.1593
rradius 88.803 -0 0
rwrist -13.865 0 0
rhand -30.3776 -45.4751 -0.369237
rfingers 7.12502 -0 0
rthumb -3.67849 -75.179 -0.369052
